<?xml version="1.0" encoding="UTF-8"?>
<svg version="1.1" xmlns="http://www.w3.org/2000/svg" width="1024" height="1024">
<path d="M0 0 C337.92 0 675.84 0 1024 0 C1024 337.92 1024 675.84 1024 1024 C686.08 1024 348.16 1024 0 1024 C0 686.08 0 348.16 0 0 Z " fill="#D2DDD2" transform="translate(0,0)"/>
<path d="M0 0 C14.09112211 10.12030715 23.16053786 25.98766315 26 43 C27.85827308 62.51452961 25.09641928 80.165173 13 96 C12.46761719 96.71285156 11.93523437 97.42570313 11.38671875 98.16015625 C1.45328919 110.46433272 -14.36070397 118.94362197 -30 121 C-48.77292906 122.29166044 -64.60388534 120.10532745 -79.62109375 107.86328125 C-82.1572036 105.64371408 -84.59216057 103.35750132 -87 101 C-87.55429687 100.48179687 -88.10859375 99.96359375 -88.6796875 99.4296875 C-100.12654429 87.6115813 -105.70133374 68.42464268 -105.46875 52.41088867 C-104.70932637 35.00149743 -97.93071666 19.02307288 -85.76171875 6.5 C-60.76888313 -16.12434908 -28.09037793 -17.73807207 0 0 Z " fill="#33543E" transform="translate(654,455)"/>
<path d="M0 0 C0.8559375 0.2784375 1.711875 0.556875 2.59375 0.84375 C9.15712677 3.19360094 14.51187297 6.74647626 20 11 C20.71285156 11.5465625 21.42570313 12.093125 22.16015625 12.65625 C33.69008502 22.07569084 42.07623789 37.25115716 44 52 C45.40047772 72.20689278 42.64284035 91.26506102 29 107 C28.45472656 107.68835938 27.90945313 108.37671875 27.34765625 109.0859375 C17.98806599 120.58171659 3.63368601 128.00660455 -11 130 C-32.5983825 131.46364996 -49.65641628 127.90733536 -66.49609375 113.4453125 C-73.64525301 106.46345026 -78.48360973 98.29778637 -82 89 C-82.58974609 87.51693359 -82.58974609 87.51693359 -83.19140625 86.00390625 C-89.09892854 68.85768302 -87.60299738 49.07586522 -79.8125 32.875 C-70.99274594 15.74034195 -56.15479802 4.26143484 -38 -1.875 C-25.86078371 -4.83492502 -11.73506 -4.10020169 0 0 Z " fill="#33543E" transform="translate(776,446)"/>
<path d="M0 0 C63.18316832 0 63.18316832 0 75 11 C75.60070312 11.50015625 76.20140625 12.0003125 76.8203125 12.515625 C83.8400297 18.77563255 88.98524693 28.58898365 90 38 C90.8665527 53.50375811 88.80971058 66.16064712 78.92578125 78.61328125 C70.27648231 87.85265804 60.16082463 92.58576347 47.5715332 93.1550293 C43.83656618 93.19599105 40.10993462 93.1746118 36.375 93.125 C31.96125 93.08375 27.5475 93.0425 23 93 C23 105.54 23 118.08 23 131 C15.41 131 7.82 131 0 131 C0 87.77 0 44.54 0 0 Z " fill="#33553E" transform="translate(174,444)"/>
<path d="M0 0 C58.74 0 117.48 0 178 0 C178 0.33 178 0.66 178 1 C176.78828125 1.15855469 175.5765625 1.31710938 174.328125 1.48046875 C141.00163091 6.0355263 109.28429442 16.89414751 82 37 C81.42378906 37.42216797 80.84757812 37.84433594 80.25390625 38.27929688 C65.95571996 48.86759741 52.92202971 60.93439153 42 75 C41.58975586 75.52464844 41.17951172 76.04929687 40.75683594 76.58984375 C23.11990523 99.43546421 11.29554172 125.90359596 5 154 C4.69156153 155.32165083 4.38297362 156.6432668 4.07421875 157.96484375 C2.6473946 164.30102493 1.55783651 170.52909644 1 177 C0.67 177 0.34 177 0 177 C0 118.59 0 60.18 0 0 Z " fill="#FEFEFE" transform="translate(0,0)"/>
<path d="M0 0 C0.33 0 0.66 0 1 0 C1 59.07 1 118.14 1 179 C-59.06 179 -119.12 179 -181 179 C-181 178.67 -181 178.34 -181 178 C-179.87078125 177.94392578 -179.87078125 177.94392578 -178.71875 177.88671875 C-128.45033206 174.77544531 -80.4262932 149.25151813 -47 112 C-39.07562094 102.62539335 -32.06273639 92.67145463 -26 82 C-25.34644531 80.87851562 -24.69289063 79.75703125 -24.01953125 78.6015625 C-18.11944668 68.21895542 -13.91742093 57.25895794 -10 46 C-9.57025879 44.77603516 -9.57025879 44.77603516 -9.13183594 43.52734375 C-4.23760874 29.31270512 -1.95491155 14.87417442 0 0 Z " fill="#FEFEFE" transform="translate(1023,845)"/>
<path d="M0 0 C0.33 0 0.66 0 1 0 C1.08975098 0.67764404 1.17950195 1.35528809 1.27197266 2.0534668 C3.35758411 17.45660343 6.09803568 32.23530822 11 47 C11.23976563 47.72364746 11.47953125 48.44729492 11.7265625 49.19287109 C15.24551331 59.58779379 19.8555474 69.32027357 25 79 C25.60457031 80.16144531 26.20914062 81.32289063 26.83203125 82.51953125 C34.79766961 97.1930756 45.45149503 110.01603105 57 122 C58.14275391 123.2375 58.14275391 123.2375 59.30859375 124.5 C82.92501517 149.35100669 115.42772371 164.83348509 148 174 C148.6609668 174.18868652 149.32193359 174.37737305 150.00292969 174.57177734 C155.75720041 176.11987317 161.59781585 176.86592645 167.5 177.625 C168.51320312 177.7590625 169.52640625 177.893125 170.5703125 178.03125 C173.04636609 178.35827595 175.52288975 178.68109442 178 179 C178 179.33 178 179.66 178 180 C119.26 180 60.52 180 0 180 C0 120.6 0 61.2 0 0 Z " fill="#FEFEFE" transform="translate(0,844)"/>
<path d="M0 0 C58.41 0 116.82 0 177 0 C177 58.74 177 117.48 177 178 C176.67 178 176.34 178 176 178 C175.87995605 177.22624023 175.75991211 176.45248047 175.63623047 175.65527344 C168.61809013 131.09041241 152.7453963 93.48385265 122 60 C121.23171875 59.15953125 120.4634375 58.3190625 119.671875 57.453125 C113.38978337 50.8918293 106.2398517 45.44792503 99 40 C98.43651855 39.57041992 97.87303711 39.14083984 97.29248047 38.69824219 C74.79347157 21.62186909 48.7007519 10.3296827 21.1875 4.25 C20.23262695 4.03899658 19.27775391 3.82799316 18.29394531 3.6105957 C12.21341571 2.3247357 6.1958543 1.48224638 0 1 C0 0.67 0 0.34 0 0 Z " fill="#FEFEFE" transform="translate(847,0)"/>
<path d="M0 0 C7.26 0 14.52 0 22 0 C22 20.46 22 40.92 22 62 C22.66 62 23.32 62 24 62 C24.24234375 61.46503906 24.4846875 60.93007813 24.734375 60.37890625 C26.32908102 57.38144957 28.26302567 54.68136064 30.25 51.9375 C30.68401123 51.33389648 31.11802246 50.73029297 31.56518555 50.10839844 C35.86211612 44.15130717 40.22921206 38.24570283 44.59448242 32.33862305 C49.83230527 25.24545612 55.0061065 18.10731593 60.16015625 10.953125 C60.89673462 9.96517944 60.89673462 9.96517944 61.64819336 8.95727539 C63.04323567 7.04397406 63.04323567 7.04397406 63.99438477 4.94702148 C65.14974692 2.74067221 65.98268804 1.48064188 68 0 C72.62917068 -0.8644627 77.12463799 -0.65819087 81.8125 -0.4375 C83.07771484 -0.40591797 84.34292969 -0.37433594 85.64648438 -0.34179688 C88.76667857 -0.25937665 91.88215803 -0.14435922 95 0 C89.58063251 11.19256145 80.65949295 21.11517882 73.12353516 30.94116211 C68.01532667 37.61903646 63.04355619 44.38325293 58.16088867 51.22753906 C55.53527604 54.90399944 52.86714273 58.50481648 50 62 C51.58044974 66.99190833 54.5539018 70.57745336 57.75 74.625 C58.92992996 76.1420291 60.1082578 77.66030538 61.28515625 79.1796875 C61.89633301 79.96827148 62.50750977 80.75685547 63.13720703 81.56933594 C66.21467354 85.5849659 69.19988775 89.66732669 72.1875 93.75 C76.93476329 100.22496223 81.75360168 106.63172588 86.66796875 112.98046875 C89.17235329 116.22316431 91.65678971 119.47973126 94.125 122.75 C94.87007812 123.73484375 95.61515625 124.7196875 96.3828125 125.734375 C98 128 98 128 98 129 C73.63630036 131.50279016 73.63630036 131.50279016 66.65820312 127.73583984 C62.8550797 124.28887212 60.5655791 119.93231541 58.26904297 115.39550781 C56.05529412 111.2167268 53.27269572 107.42967057 50.5625 103.5625 C49.47733911 101.9612935 48.39270377 100.35973069 47.30859375 98.7578125 C43.06995615 92.58587188 38.48323459 86.69248656 33.90234375 80.7734375 C24 67.96242089 24 67.96242089 24 65 C23.34 65 22.68 65 22 65 C22 86.12 22 107.24 22 129 C14.74 129 7.48 129 0 129 C0 86.43 0 43.86 0 0 Z " fill="#32533C" transform="translate(456,445)"/>
<path d="M0 0 C24.42 0 48.84 0 74 0 C74 7.26 74 14.52 74 22 C57.17 22 40.34 22 23 22 C23 32.89 23 43.78 23 55 C37.19 55 51.38 55 66 55 C66 61.93 66 68.86 66 76 C51.81 76 37.62 76 23 76 C23 86.89 23 97.78 23 109 C39.83 109 56.66 109 74 109 C74 116.26 74 123.52 74 131 C49.58 131 25.16 131 0 131 C0 87.77 0 44.54 0 0 Z " fill="#34553E" transform="translate(365,444)"/>
<path d="M0 0 C24.42 0 48.84 0 74 0 C74 6.93 74 13.86 74 21 C57.17 21 40.34 21 23 21 C23 31.89 23 42.78 23 54 C37.19 54 51.38 54 66 54 C66 60.93 66 67.86 66 75 C51.81 75 37.62 75 23 75 C23 85.89 23 96.78 23 108 C39.83 108 56.66 108 74 108 C74 115.26 74 122.52 74 130 C49.58 130 25.16 130 0 130 C0 87.1 0 44.2 0 0 Z " fill="#33543E" transform="translate(275,445)"/>
<path d="M0 0 C9.46547207 6.47999614 14.20901699 14.52947064 18.4375 25 C21.10325408 39.54047678 18.4173557 53.51877535 10.125 65.75 C3.48405084 74.15313084 -5.5047643 79.29742806 -15.875 81.75 C-30.53461083 82.97031355 -40.99295034 79.93325581 -52.77734375 71.3671875 C-59.67470789 65.39259997 -64.03624868 55.26625396 -66.875 46.75 C-67.88575257 31.67156008 -66.10775398 18.58352143 -55.875 6.75 C-40.52736312 -9.72912617 -19.09316655 -11.3985161 0 0 Z " fill="#D3DED0" transform="translate(778.875,472.25)"/>
<path d="M0 0 C11.28982381 6.39340851 18.05014662 14.75982931 22.265625 27.0390625 C25.85778026 40.22584889 23.73175649 53.00603957 17.140625 64.9765625 C10.87176817 74.51272875 1.68966382 80.53554485 -9.0234375 84.2421875 C-22.30516264 86.46385789 -33.85343907 84.44151613 -44.984375 76.8515625 C-54.03730917 69.84616251 -60.15628644 60.03015743 -62.171875 48.6015625 C-62.97213242 33.79680027 -61.49866455 22.69922351 -52.171875 10.6015625 C-38.83112076 -3.95198758 -18.11733757 -8.3153934 0 0 Z " fill="#D2DDCF" transform="translate(634.171875,469.3984375)"/>
<path d="M0 0 C30.30344828 0 30.30344828 0 37.3125 6.3125 C37.94800781 6.86550781 38.58351562 7.41851562 39.23828125 7.98828125 C44.46418468 13.9557763 44.52639605 19.68198524 44.33984375 27.30078125 C43.59080051 35.45415992 40.490306 40.18700277 34.390625 45.4921875 C22.91974837 52.72708681 14.75924285 50 0 50 C0 33.5 0 17 0 0 Z " fill="#D1DDD0" transform="translate(197,466)"/>
<path d="M0 0 C6.36896284 2.22530027 10.58747529 7.1688428 14.109375 12.76171875 C16.33025671 18.34314515 15.83194182 25.69855999 14.3828125 31.44921875 C11.69747181 37.49717632 6.49153281 42.31054864 0.578125 45.171875 C-5.24160448 47.04124265 -11.70366567 46.95068923 -17.3125 44.4375 C-21.44264163 42.04235639 -24.25762911 38.8615316 -27 35 C-27.61875 34.13375 -28.2375 33.2675 -28.875 32.375 C-30.92946863 26.2115941 -31.15104884 19.5916987 -29.15625 13.3671875 C-22.99213856 1.08061402 -12.72240568 -1.15658233 0 0 Z " fill="#33553F" transform="translate(622,487)"/>
<path d="M0 0 C9.9 0 19.8 0 30 0 C30 4.62 30 9.24 30 14 C20.1 14 10.2 14 0 14 C0 9.38 0 4.76 0 0 Z " fill="#375841" transform="translate(831,512)"/>
<path d="M0 0 C9.9 0 19.8 0 30 0 C30 4.62 30 9.24 30 14 C20.1 14 10.2 14 0 14 C0 9.38 0 4.76 0 0 Z " fill="#385942" transform="translate(831,487)"/>
</svg>
